<?xml version="1.0" standalone="no"?>
<!DOCTYPE svg PUBLIC "-//W3C//DTD SVG 20010904//EN"
 "http://www.w3.org/TR/2001/REC-SVG-20010904/DTD/svg10.dtd">
<svg version="1.0" xmlns="http://www.w3.org/2000/svg"
 width="343.000000pt" height="171.000000pt" viewBox="0 0 343.000000 171.000000"
 preserveAspectRatio="xMidYMid meet">
<g transform="translate(0.000000,171.000000) scale(0.100000,-0.100000)"
fill="#000000" stroke="none">
<path d="M220 1471 c0 -5 18 -7 40 -4 l40 6 0 -117 c0 -86 3 -116 13 -116 9 0
11 29 9 116 l-2 117 45 -5 c25 -3 45 -2 45 3 0 5 -43 9 -95 9 -52 0 -95 -4
-95 -9z"/>
<path d="M440 1360 c0 -73 4 -120 10 -120 6 0 10 28 10 63 0 71 17 97 61 97
39 0 49 -18 49 -92 0 -39 4 -68 10 -68 6 0 10 29 10 68 0 54 -4 72 -18 85 -21
19 -64 22 -93 7 -17 -10 -19 -7 -19 35 0 25 -4 45 -10 45 -6 0 -10 -47 -10
-120z"/>
<path d="M673 1405 c-78 -33 -69 -151 12 -171 28 -7 75 18 75 39 0 6 -5 4 -11
-5 -15 -27 -74 -24 -93 4 -22 32 -21 35 22 42 48 7 91 49 76 73 -16 25 -47 32
-81 18z m64 -21 c8 -21 -25 -52 -65 -60 -27 -6 -32 -4 -32 13 0 10 7 29 16 41
18 26 71 31 81 6z"/>
<path d="M393 1140 c-63 -25 -127 -92 -145 -152 -40 -137 14 -277 131 -335 57
-29 182 -25 246 7 l50 25 3 118 c3 112 2 117 -18 117 -19 0 -20 -6 -20 -90 0
-101 -11 -133 -54 -159 -67 -41 -157 -35 -225 16 -85 65 -111 230 -54 341 38
76 97 113 177 113 68 0 133 -31 156 -76 8 -16 16 -32 18 -34 1 -3 7 0 14 7 8
8 8 19 -2 41 -27 67 -177 100 -277 61z"/>
<path d="M1629 1144 c-30 -9 -59 -27 -78 -49 -68 -78 -24 -171 92 -194 31 -6
81 -16 111 -22 110 -21 156 -82 119 -157 -45 -92 -200 -108 -288 -31 -36 32
-45 65 -23 87 9 9 8 12 -8 12 -43 0 -58 -46 -28 -88 42 -60 185 -90 281 -58
72 24 105 63 111 129 7 93 -41 129 -223 163 -72 14 -96 23 -118 46 -24 23 -27
33 -22 61 4 17 20 45 35 61 24 25 39 30 89 34 33 2 76 1 96 -2 39 -8 105 -60
105 -83 0 -20 24 -11 28 10 6 29 -49 73 -106 86 -68 14 -116 13 -173 -5z"/>
<path d="M2509 1144 c-30 -9 -59 -27 -78 -49 -68 -78 -24 -171 92 -194 31 -6
81 -16 111 -22 110 -21 156 -82 119 -157 -45 -92 -200 -108 -288 -31 -36 32
-45 65 -23 87 9 9 8 12 -8 12 -43 0 -58 -46 -28 -88 42 -60 185 -90 281 -58
72 24 105 63 111 129 7 93 -41 129 -223 163 -72 14 -96 23 -118 46 -24 23 -27
33 -22 61 4 17 20 45 35 61 24 25 39 30 89 34 33 2 76 1 96 -2 39 -8 105 -60
105 -83 0 -20 24 -11 28 10 6 29 -49 73 -106 86 -68 14 -116 13 -173 -5z"/>
<path d="M670 1146 c0 -2 37 -58 83 -123 46 -65 87 -124 91 -131 5 -8 8 -67 8
-133 -1 -116 0 -119 21 -119 21 0 22 3 22 117 l0 118 90 130 c50 71 92 133 93
137 2 5 -5 8 -16 8 -16 0 -38 -30 -92 -125 -40 -70 -77 -124 -83 -122 -6 2
-49 57 -94 123 -53 76 -90 120 -103 122 -11 2 -20 1 -20 -2z"/>
<path d="M1100 896 c0 -249 1 -256 20 -256 19 0 20 7 20 110 l0 110 118 0 c92
0 124 4 151 18 101 51 106 190 10 247 -29 17 -56 21 -176 23 l-143 4 0 -256z
m279 219 c43 -22 64 -67 59 -127 -9 -91 -64 -121 -208 -116 l-85 3 -3 124 c-2
93 1 127 10 133 21 13 193 1 227 -17z"/>
<path d="M1950 895 c0 -248 1 -255 20 -255 19 0 20 7 20 255 0 248 -1 255 -20
255 -19 0 -20 -7 -20 -255z"/>
<path d="M2040 1148 c0 -2 -1 -117 -3 -256 l-2 -252 178 0 177 0 0 25 c0 22
-3 23 -24 15 -26 -10 -195 -30 -251 -30 l-35 0 0 127 0 126 98 -6 c53 -4 112
-11 130 -16 30 -9 32 -8 32 15 l0 24 -130 0 c-97 0 -130 3 -131 13 -2 30 3
192 7 196 12 13 225 -5 287 -25 13 -4 17 0 17 20 l0 26 -175 0 c-96 0 -175 -1
-175 -2z"/>
<path d="M2856 582 c-3 -5 1 -9 9 -9 8 0 12 4 9 9 -3 4 -7 8 -9 8 -2 0 -6 -4
-9 -8z"/>
<path d="M2075 528 c-34 -19 -65 -51 -65 -67 0 -10 7 -6 17 11 39 62 142 69
143 10 0 -16 -58 -76 -79 -84 -21 -6 17 -78 52 -98 24 -14 28 -13 44 4 10 10
12 16 5 11 -25 -14 -58 4 -75 41 -10 20 -17 37 -15 38 46 28 61 43 78 76 11
22 30 44 41 51 25 13 25 11 -9 -108 -17 -61 -18 -73 -6 -73 8 0 14 10 14 24 0
57 12 59 41 7 16 -27 37 -52 46 -54 10 -3 48 -5 85 -4 53 2 72 7 88 23 27 27
18 47 -36 85 -24 16 -44 36 -44 44 0 19 48 55 75 55 32 0 37 -10 20 -37 -9
-13 -11 -23 -5 -23 6 0 16 11 22 25 9 21 9 29 -4 42 -21 21 -59 11 -100 -25
-37 -34 -32 -51 28 -92 53 -35 55 -56 8 -76 -48 -20 -84 -12 -84 20 0 14 6 26
13 29 6 2 8 8 4 13 -12 13 -39 -27 -33 -48 3 -12 -2 -18 -13 -18 -21 0 -42 22
-64 66 l-16 31 45 31 c24 18 49 32 54 32 6 0 10 5 10 10 0 17 -13 12 -69 -26
-49 -33 -52 -34 -45 -12 22 66 -4 100 -45 59 l-21 -21 -20 20 c-22 22 -54 25
-85 8z"/>
<path d="M2800 485 c-34 -35 -63 -55 -77 -55 -13 0 -23 -5 -23 -11 0 -6 9 -8
21 -4 19 6 19 5 -5 -32 -13 -21 -27 -51 -30 -68 -4 -16 -3 -23 0 -15 3 8 20
39 37 68 27 45 35 52 63 52 31 0 32 0 26 -45 -4 -36 -1 -46 12 -51 21 -8 35 4
17 15 -7 5 -11 22 -9 42 2 27 7 34 23 32 18 -3 18 -2 4 9 -15 10 -15 15 -2 55
23 68 5 71 -57 8z m38 -18 c-10 -32 -15 -37 -42 -37 l-30 0 39 40 c21 22 40
38 42 37 1 -2 -3 -20 -9 -40z"/>
<path d="M2947 519 c-15 -12 -37 -39 -47 -60 -32 -62 -25 -101 21 -124 41 -22
80 -18 114 11 32 27 30 27 -28 1 -32 -15 -42 -16 -64 -5 -37 18 -47 39 -39 81
13 68 93 121 125 83 10 -11 10 -20 1 -37 -10 -17 -9 -20 2 -17 19 7 22 53 3
72 -22 22 -54 20 -88 -5z"/>
<path d="M3140 521 c-45 -24 -95 -85 -86 -106 3 -9 15 -19 26 -22 23 -6 24 -7
8 -32 -14 -23 4 -51 33 -51 22 0 89 38 89 51 0 5 -15 0 -32 -11 -39 -24 -78
-26 -78 -5 0 17 30 35 59 35 12 0 21 5 21 11 0 7 -12 9 -32 6 -42 -6 -78 8
-78 29 0 23 62 81 94 90 39 9 53 -8 32 -40 -22 -35 -20 -46 4 -17 23 26 25 52
8 69 -16 16 -27 15 -68 -7z"/>
<path d="M1795 467 c-1 -64 -24 -120 -54 -132 -33 -13 -54 61 -31 105 6 10 6
21 1 24 -4 3 -30 -21 -56 -54 -27 -33 -50 -58 -52 -56 -3 2 5 34 16 71 24 78
24 75 12 75 -12 0 -41 -98 -41 -139 0 -42 13 -39 52 13 l33 43 10 -40 c6 -22
18 -45 28 -51 27 -17 69 12 85 59 17 48 21 137 7 141 -6 2 -10 -21 -10 -59z"/>
<path d="M1890 523 c-21 -8 -50 -34 -50 -45 0 -5 12 0 26 11 76 60 147 -20 94
-106 -32 -53 -90 -69 -113 -32 -21 34 30 123 76 132 20 4 20 4 -3 6 -36 2 -63
-21 -85 -68 -15 -34 -16 -45 -5 -70 39 -95 183 5 163 113 -9 46 -60 75 -103
59z"/>
<path d="M2561 512 c-19 -9 -37 -23 -39 -30 -3 -10 4 -8 24 4 28 19 28 19 20
-1 -19 -50 -37 -137 -31 -155 9 -29 23 -24 17 6 -7 38 37 172 59 179 43 14 84
-16 71 -53 -6 -18 -56 -42 -87 -42 -15 0 -24 -4 -20 -10 19 -30 117 16 123 59
8 55 -67 79 -137 43z"/>
<path d="M2067 478 c-3 -13 -14 -49 -26 -80 -19 -53 -20 -88 -1 -88 5 0 6 8 3
19 -4 15 14 69 54 159 3 6 -2 12 -10 12 -8 0 -17 -10 -20 -22z"/>
<path d="M2023 285 c0 -8 4 -12 9 -9 5 3 6 10 3 15 -9 13 -12 11 -12 -6z"/>
<path d="M2276 278 c3 -5 10 -6 15 -3 13 9 11 12 -6 12 -8 0 -12 -4 -9 -9z"/>
</g>
</svg>
